<mxfile host="app.diagrams.net" modified="2023-04-18T00:46:52.346Z" agent="Mozilla/5.0 (Macintosh; Intel Mac OS X 10_15_7) AppleWebKit/537.36 (KHTML, like Gecko) Chrome/112.0.0.0 Safari/537.36" etag="wHAM2UCEwBv0vU-LAJeP" version="21.1.5" type="device">
  <diagram name="Page-1" id="Mh3Wij1_-z3BmgbFlclZ">
    <mxGraphModel dx="1062" dy="873" grid="1" gridSize="10" guides="1" tooltips="1" connect="1" arrows="1" fold="1" page="1" pageScale="1" pageWidth="850" pageHeight="1100" math="0" shadow="0">
      <root>
        <mxCell id="0" />
        <mxCell id="1" parent="0" />
        <mxCell id="Qh8-cJ79TIAw0w3_1527-1" value="" style="rhombus;whiteSpace=wrap;html=1;strokeColor=#3399FF;" vertex="1" parent="1">
          <mxGeometry x="200" y="160" width="50" height="50" as="geometry" />
        </mxCell>
        <mxCell id="Qh8-cJ79TIAw0w3_1527-2" value="" style="endArrow=classic;html=1;rounded=0;strokeColor=#3399FF;" edge="1" parent="1">
          <mxGeometry width="50" height="50" relative="1" as="geometry">
            <mxPoint x="225" y="260" as="sourcePoint" />
            <mxPoint x="224.5" y="220" as="targetPoint" />
          </mxGeometry>
        </mxCell>
        <mxCell id="Qh8-cJ79TIAw0w3_1527-3" value="" style="ellipse;whiteSpace=wrap;html=1;aspect=fixed;strokeColor=#FF8000;" vertex="1" parent="1">
          <mxGeometry x="200" y="270" width="50" height="50" as="geometry" />
        </mxCell>
        <mxCell id="Qh8-cJ79TIAw0w3_1527-4" value="" style="endArrow=classic;html=1;rounded=0;fillColor=#3399FF;strokeColor=#3399FF;" edge="1" parent="1">
          <mxGeometry width="50" height="50" relative="1" as="geometry">
            <mxPoint x="150" y="360" as="sourcePoint" />
            <mxPoint x="180" y="330" as="targetPoint" />
          </mxGeometry>
        </mxCell>
        <mxCell id="Qh8-cJ79TIAw0w3_1527-5" value="" style="rhombus;whiteSpace=wrap;html=1;strokeColor=#3399FF;" vertex="1" parent="1">
          <mxGeometry x="100" y="360" width="50" height="50" as="geometry" />
        </mxCell>
        <mxCell id="Qh8-cJ79TIAw0w3_1527-6" value="" style="rhombus;whiteSpace=wrap;html=1;strokeColor=#3399FF;" vertex="1" parent="1">
          <mxGeometry x="200" y="380" width="50" height="50" as="geometry" />
        </mxCell>
        <mxCell id="Qh8-cJ79TIAw0w3_1527-7" value="" style="endArrow=classic;html=1;rounded=0;strokeColor=#3399FF;" edge="1" parent="1">
          <mxGeometry width="50" height="50" relative="1" as="geometry">
            <mxPoint x="225" y="370" as="sourcePoint" />
            <mxPoint x="224.5" y="330" as="targetPoint" />
          </mxGeometry>
        </mxCell>
        <mxCell id="Qh8-cJ79TIAw0w3_1527-9" value="" style="rhombus;whiteSpace=wrap;html=1;strokeColor=#3399FF;" vertex="1" parent="1">
          <mxGeometry x="490" y="160" width="50" height="50" as="geometry" />
        </mxCell>
        <mxCell id="Qh8-cJ79TIAw0w3_1527-10" value="" style="endArrow=classic;html=1;rounded=0;strokeColor=#3399FF;" edge="1" parent="1">
          <mxGeometry width="50" height="50" relative="1" as="geometry">
            <mxPoint x="515" y="260" as="sourcePoint" />
            <mxPoint x="514.5" y="220" as="targetPoint" />
          </mxGeometry>
        </mxCell>
        <mxCell id="Qh8-cJ79TIAw0w3_1527-11" value="" style="ellipse;whiteSpace=wrap;html=1;aspect=fixed;strokeColor=#3399FF;" vertex="1" parent="1">
          <mxGeometry x="490" y="270" width="50" height="50" as="geometry" />
        </mxCell>
        <mxCell id="Qh8-cJ79TIAw0w3_1527-12" value="" style="endArrow=classic;html=1;rounded=0;strokeColor=#3399FF;" edge="1" parent="1">
          <mxGeometry width="50" height="50" relative="1" as="geometry">
            <mxPoint x="440" y="360" as="sourcePoint" />
            <mxPoint x="470" y="330" as="targetPoint" />
          </mxGeometry>
        </mxCell>
        <mxCell id="Qh8-cJ79TIAw0w3_1527-13" value="" style="rhombus;whiteSpace=wrap;html=1;strokeColor=#3399FF;" vertex="1" parent="1">
          <mxGeometry x="390" y="360" width="50" height="50" as="geometry" />
        </mxCell>
        <mxCell id="Qh8-cJ79TIAw0w3_1527-14" value="" style="rhombus;whiteSpace=wrap;html=1;strokeColor=#3399FF;" vertex="1" parent="1">
          <mxGeometry x="490" y="380" width="50" height="50" as="geometry" />
        </mxCell>
        <mxCell id="Qh8-cJ79TIAw0w3_1527-15" value="" style="endArrow=classic;html=1;rounded=0;strokeColor=#3399FF;" edge="1" parent="1">
          <mxGeometry width="50" height="50" relative="1" as="geometry">
            <mxPoint x="515" y="370" as="sourcePoint" />
            <mxPoint x="514.5" y="330" as="targetPoint" />
          </mxGeometry>
        </mxCell>
        <mxCell id="Qh8-cJ79TIAw0w3_1527-16" value="" style="ellipse;whiteSpace=wrap;html=1;aspect=fixed;strokeColor=#FF8000;" vertex="1" parent="1">
          <mxGeometry x="590" y="360" width="50" height="50" as="geometry" />
        </mxCell>
        <mxCell id="Qh8-cJ79TIAw0w3_1527-17" value="" style="endArrow=classic;html=1;rounded=0;strokeColor=#FF8000;" edge="1" parent="1">
          <mxGeometry width="50" height="50" relative="1" as="geometry">
            <mxPoint x="590" y="360" as="sourcePoint" />
            <mxPoint x="560" y="330" as="targetPoint" />
            <Array as="points">
              <mxPoint x="590" y="360" />
            </Array>
          </mxGeometry>
        </mxCell>
      </root>
    </mxGraphModel>
  </diagram>
</mxfile>
